<?xml version="1.0" encoding="utf-8"?><svg viewBox="0 0 32 32" xmlns="http://www.w3.org/2000/svg" xmlns:xlink="http://www.w3.org/1999/xlink"><style>:root>svg{display:none}:root>svg:target{display:block}</style><svg viewBox="0 0 21 20" id="cart" xmlns="http://www.w3.org/2000/svg"><path d="M7.382 19.703c.828 0 1.499-.664 1.499-1.483 0-.819-.671-1.483-1.5-1.483a1.49 1.49 0 00-1.498 1.483c0 .82.67 1.483 1.499 1.483zm9.108 0a1.49 1.49 0 001.498-1.483 1.49 1.49 0 00-1.499-1.483c-.828 0-1.499.664-1.499 1.483 0 .82.671 1.483 1.5 1.483zm4.05-17.564a.665.665 0 00-.513-.244H9.067a.66.66 0 000 1.318h10.087l-1.779 6.933H7.382L4.337 1.585a.658.658 0 00-.44-.429L1.165.326a.676.676 0 00-.51.048.656.656 0 00-.278.895.668.668 0 00.395.322l2.392.726 3.058 8.58-1.092.883-.087.086A1.743 1.743 0 004.99 14.1a1.83 1.83 0 001.506.659h11.12a.67.67 0 00.47-.193.656.656 0 000-.933.67.67 0 00-.47-.193H6.388a.45.45 0 01-.374-.225.438.438 0 010-.434l1.606-1.318h10.287a.671.671 0 00.426-.14.658.658 0 00.24-.374l2.113-8.251a.652.652 0 00-.147-.56z"/><path d="M20.027 1.895a.672.672 0 01.513.244.657.657 0 01.147.56l-2.112 8.25a.658.658 0 01-.24.376.671.671 0 01-.427.139H7.621l-1.605 1.318a.438.438 0 00.156.595.45.45 0 00.217.064h11.226a.67.67 0 01.471.193.655.655 0 010 .933.67.67 0 01-.47.193H6.495a1.849 1.849 0 01-1.506-.66 1.741 1.741 0 01.053-2.234l.087-.086 1.092-.883-3.058-8.58L.772 1.59a.668.668 0 01-.394-.322.656.656 0 01.278-.895.674.674 0 01.51-.048l2.731.83a.668.668 0 01.44.429l3.045 8.56h9.993l1.78-6.932H9.065a.66.66 0 010-1.318h10.961zM18.78 3.51H9.063a.956.956 0 010-1.912h10.966a.975.975 0 01.951 1.16v.006l-2.113 8.25M18.78 3.51l-1.645 6.339H7.601L4.623 1.495v-.001a.954.954 0 00-.638-.621L1.254.043a.979.979 0 00-.739.069.95.95 0 00-.403 1.296.974.974 0 00.572.467l2.242.68 2.95 8.24-.948.765-.104.104-.007.008a2.038 2.038 0 00-.063 2.612l.004.005a2.13 2.13 0 001.745.767h11.112c.257 0 .502-.1.683-.28a.95.95 0 000-1.351.972.972 0 00-.683-.28H6.395a.148.148 0 01-.119-.074.144.144 0 01-.014-.105L7.73 11.76h10.175a.973.973 0 00.614-.201.955.955 0 00.348-.544M9.181 18.22A1.79 1.79 0 017.38 20a1.79 1.79 0 01-1.798-1.78c0-.983.805-1.78 1.799-1.78a1.79 1.79 0 011.799 1.78zm9.107 0A1.79 1.79 0 0116.49 20a1.79 1.79 0 01-1.799-1.78c0-.983.806-1.78 1.8-1.78a1.79 1.79 0 011.798 1.78zM7.382 19.703c.828 0 1.499-.664 1.499-1.483 0-.819-.671-1.483-1.5-1.483a1.49 1.49 0 00-1.498 1.483c0 .82.67 1.483 1.499 1.483zm9.107 0c.828 0 1.5-.664 1.5-1.483 0-.819-.672-1.483-1.5-1.483s-1.499.664-1.499 1.483c0 .82.671 1.483 1.5 1.483z"/></svg><svg viewBox="0 0 21 21" id="cart_active" xmlns="http://www.w3.org/2000/svg"><path d="M16.222 1.692A1 1 0 0014.778.308L11.11 4.135 9.64 2.913A1 1 0 108.36 4.45l2.188 1.818a1 1 0 001.361-.077l4.313-4.5zm1.841 2.818h.718l-1.646 6.339H7.601L4.623 2.495v-.001a.954.954 0 00-.638-.621l-2.731-.83a.979.979 0 00-.739.069.95.95 0 00-.403 1.296.974.974 0 00.572.467l2.242.68 2.95 8.24-.948.765-.104.104-.007.008a2.038 2.038 0 00-.063 2.612l.004.005a2.13 2.13 0 001.745.767h11.112c.257 0 .502-.1.683-.28a.95.95 0 000-1.351.972.972 0 00-.683-.28H6.395a.148.148 0 01-.119-.074.144.144 0 01-.014-.105L7.73 12.76h10.175a.973.973 0 00.614-.201.955.955 0 00.348-.544l2.112-8.25.002-.007a.946.946 0 00-.21-.81.965.965 0 00-.742-.35h-1.966a.956.956 0 100 1.912zM7.382 21a1.79 1.79 0 001.799-1.78 1.79 1.79 0 00-1.8-1.78 1.79 1.79 0 00-1.798 1.78c0 .983.805 1.78 1.799 1.78zm9.107 0a1.79 1.79 0 001.8-1.78 1.79 1.79 0 00-1.8-1.78 1.79 1.79 0 00-1.799 1.78c0 .983.806 1.78 1.8 1.78z"/></svg><svg viewBox="0 0 17 20" id="compare" xmlns="http://www.w3.org/2000/svg"><path d="M1 10a1 1 0 00-1 1v8a1 1 0 102 0v-8a1 1 0 00-1-1zM6 0a1 1 0 00-1 1v18a1 1 0 102 0V1a1 1 0 00-1-1zm10 14a1 1 0 00-1 1v4a1 1 0 002 0v-4a1 1 0 00-1-1zm-5-8a1 1 0 00-1 1v12a1 1 0 002 0V7a1 1 0 00-1-1z"/></svg><svg viewBox="0 0 24 24" id="eye" xmlns="http://www.w3.org/2000/svg"><path d="M21.87 11.5c-.64-1.11-4.16-6.68-10.14-6.5-5.53.14-8.73 5-9.6 6.5a1 1 0 000 1c.63 1.09 4 6.5 9.89 6.5h.25c5.53-.14 8.74-5 9.6-6.5a1 1 0 000-1zM12.22 17c-4.31.1-7.12-3.59-8-5 1-1.61 3.61-4.9 7.61-5 4.29-.11 7.11 3.59 8 5-1.03 1.61-3.61 4.9-7.61 5z"/><path d="M12 8.5a3.5 3.5 0 103.5 3.5A3.5 3.5 0 0012 8.5zm0 5a1.5 1.5 0 111.5-1.5 1.5 1.5 0 01-1.5 1.5z"/></svg><svg viewBox="0 0 17 17" id="facebook" xmlns="http://www.w3.org/2000/svg"><path d="M17 2.819C17 1.32 15.679 0 14.181 0H2.82C1.32 0 0 1.321 0 2.819V14.18C0 15.68 1.321 17 2.819 17h5.725v-6.43H6.43V7.75h2.114V6.606c0-1.938 1.41-3.611 3.171-3.611h2.29v2.818h-2.29c-.264 0-.528.265-.528.793v1.145h2.818v2.819h-2.819V17h2.995C15.68 17 17 15.679 17 14.181V2.82z"/></svg><svg viewBox="0 0 24 24" id="home" xmlns="http://www.w3.org/2000/svg"><path d="M12.59 1.41a.832.832 0 00-1.173 0l-10 10-.009.01a.832.832 0 001.173 1.172l.009-.009L12 3.173l9.41 9.417.01.009a.831.831 0 001.172-1.173l-.009-.01L12.59 1.41z"/><path d="M18.502 21.168h-2.169a.835.835 0 01-.835-.835v-4.666c0-.644-.521-1.165-1.165-1.165H9.667c-.644 0-1.165.521-1.165 1.164v4.667a.835.835 0 01-.835.835H5.498V13.61a.832.832 0 00-1.663 0v7.724a1.498 1.498 0 001.498 1.498H9c.643 0 1.165-.521 1.165-1.165V17c0-.461.374-.835.835-.835h2c.461 0 .835.374.835.835v4.666c0 .644.522 1.165 1.165 1.165h3.667a1.498 1.498 0 001.498-1.498V13.45a.832.832 0 10-1.663 0v7.72z"/></svg><svg viewBox="0 0 17 17" id="instagram" xmlns="http://www.w3.org/2000/svg"><path d="M14.58 0H2.42C1.045 0 0 1.046 0 2.42v12.16C0 15.955 1.046 17 2.42 17h12.16c1.374 0 2.42-1.046 2.42-2.42V2.42C17 1.045 15.954 0 14.58 0zM8.5 13.6c2.812 0 5.1-2.223 5.1-4.904 0-.458-.065-.98-.196-1.373h1.438v6.93a.655.655 0 01-.654.655H2.813a.655.655 0 01-.654-.654V7.258h1.504a4.964 4.964 0 00-.197 1.373C3.4 11.377 5.688 13.6 8.5 13.6zm0-1.961c-1.83 0-3.27-1.439-3.27-3.204 0-1.766 1.44-3.204 3.27-3.204s3.27 1.438 3.27 3.204c0 1.83-1.44 3.204-3.27 3.204zm6.277-6.997c0 .393-.327.72-.72.72h-1.83a.726.726 0 01-.72-.72V2.877c0-.392.328-.72.72-.72h1.83c.393 0 .72.328.72.72v1.765z"/></svg><svg viewBox="0 0 24 24" id="like" xmlns="http://www.w3.org/2000/svg"><path d="M20.16 5A6.29 6.29 0 0012 4.36a6.27 6.27 0 00-8.16 9.48l6.21 6.22a2.78 2.78 0 003.9 0l6.21-6.22a6.27 6.27 0 000-8.84zm-1.41 7.46l-6.21 6.21a.76.76 0 01-1.08 0l-6.21-6.24a4.29 4.29 0 010-6 4.27 4.27 0 016 0 1 1 0 001.42 0 4.27 4.27 0 016 0 4.29 4.29 0 01.08 6z"/></svg><svg viewBox="0 0 32 32" id="menu" xmlns="http://www.w3.org/2000/svg"><path d="M5 17a1 1 0 100-2 1 1 0 000 2zm21.724-2H10.276C9.57 15 9 15.42 9 15.94v.12c0 .52.571.94 1.276.94h16.448c.705 0 1.276-.42 1.276-.94v-.12c0-.52-.571-.94-1.276-.94zm.023 6H5.253C4.561 21 4 21.42 4 21.94v.12c0 .52.561.94 1.253.94h21.494c.692 0 1.253-.42 1.253-.94v-.12c0-.52-.561-.94-1.253-.94zm0-12H5.253C4.561 9 4 9.42 4 9.94v.12c0 .52.561.94 1.253.94h21.494c.692 0 1.253-.42 1.253-.94v-.12c0-.52-.561-.94-1.253-.94z"/></svg><svg viewBox="0 0 24 24" id="search" xmlns="http://www.w3.org/2000/svg"><g data-name="Layer 2"><path d="M20.71 19.29l-3.4-3.39A7.92 7.92 0 0019 11a8 8 0 10-8 8 7.92 7.92 0 004.9-1.69l3.39 3.4a1 1 0 001.42 0 1 1 0 000-1.42zM5 11a6 6 0 116 6 6 6 0 01-6-6z" data-name="search"/></g></svg><svg viewBox="0 0 6 11" id="triangle" xmlns="http://www.w3.org/2000/svg"><path d="M5.69 5.208a.4.4 0 010 .584L.673 10.497A.4.4 0 010 10.205V.795A.4.4 0 01.674.503l5.015 4.705z"/></svg><svg viewBox="0 0 20 16" id="twitter" xmlns="http://www.w3.org/2000/svg"><path d="M19.6 1.9c-.7.3-1.5.5-2.3.6.8-.5 1.5-1.3 1.8-2.2-.8.5-1.6.8-2.6 1C15.8.5 14.7 0 13.6 0c-2.2 0-4 1.8-4 4 0 .3 0 .6.1.9C6.4 4.7 3.4 3.1 1.4.7c-.3.6-.5 1.3-.5 2 0 1.4.7 2.6 1.8 3.3C2 6 1.4 5.8.9 5.5c0 1.9 1.4 3.6 3.2 3.9-.3.1-.7.1-1.1.1-.3 0-.5 0-.8-.1.5 1.6 2 2.8 3.8 2.8-1.4 1.1-3.1 1.7-5 1.7-.3 0-.6 0-1-.1 1.8 1.1 3.9 1.8 6.2 1.8 7.4 0 11.4-6.1 11.4-11.4v-.5c.8-.3 1.5-1 2-1.8z"/></svg><svg viewBox="0 0 21 13" id="vk" xmlns="http://www.w3.org/2000/svg"><path d="M20.806 11.115c0-.083-.083-.083-.083-.166-.332-.664-1.08-1.494-2.075-2.407-.499-.416-.748-.748-.914-.914-.249-.332-.249-.58-.166-.913.083-.249.415-.664.996-1.411.333-.415.499-.665.748-.914 1.245-1.66 1.826-2.74 1.66-3.237l-.083-.084c-.083-.083-.166-.166-.332-.166-.166-.083-.415-.083-.664 0h-3.736l-.083.083c-.083.083-.083.083-.083.167-.332.913-.747 1.66-1.162 2.49-.25.415-.499.83-.748 1.163-.249.332-.415.58-.58.747-.167.166-.333.249-.416.415-.083.083-.25.166-.25.083-.082 0-.165 0-.165-.083l-.25-.25c-.082-.082-.082-.248-.165-.414V1.153c0-.084-.083-.25-.083-.333l-.25-.249c-.082-.083-.248-.083-.331-.166A7.447 7.447 0 0010.096.24c-1.328 0-2.241.083-2.574.25-.166.082-.332.165-.415.331-.166.166-.166.25-.083.25.415.083.748.249.914.498l.083.166c.083.083.083.249.166.498s.083.498.083.83V4.39c0 .416-.083.665-.083.914s-.083.415-.166.498c-.083.166-.083.249-.166.249 0 0 0 .083-.083.083s-.167.083-.333.083c-.083 0-.249-.083-.332-.166a1 1 0 01-.415-.415c-.166-.166-.332-.415-.498-.747-.166-.333-.415-.665-.581-1.163l-.166-.332c-.083-.166-.25-.498-.415-.913-.166-.415-.332-.747-.498-1.162a1.146 1.146 0 00-.25-.333h-.082S4.119.903 4.035.903C3.952.903 3.87.82 3.786.82H.798C.466.82.299.903.216.986l-.083.083v.167c0 .083 0 .166.083.332.416.996.914 1.992 1.412 2.988.498.914.996 1.744 1.328 2.325.415.581.747 1.162 1.163 1.66.415.499.664.83.747.997l.332.332.249.249c.166.166.415.415.747.664.332.25.747.498 1.162.747.416.25.914.415 1.412.582.581.166 1.08.249 1.577.166h1.246a.747.747 0 00.58-.25l.084-.083c0-.082.083-.082.083-.166v-.332c0-.332 0-.58.083-.83.083-.249.083-.415.166-.581.083-.166.166-.25.249-.332l.166-.166h.083c.166-.083.415 0 .581.166.25.166.498.415.664.664.166.25.415.498.748.83.332.332.58.581.747.665l.249.165c.166.083.332.167.581.25.25.083.415.083.581.083l2.823-.083c.249 0 .498-.083.664-.167.166-.083.25-.166.25-.332v-.332c-.167-.166-.167-.249-.167-.332z"/></svg></svg>